<svg width="22" height="20" viewBox="0 0 22 20" fill="none" xmlns="http://www.w3.org/2000/svg">
<path d="M3.47656 3.375H18.4766C18.6518 3.37495 18.8268 3.38606 19.0006 3.40828C18.9417 2.99473 18.7997 2.5974 18.583 2.24024C18.3664 1.88308 18.0797 1.57348 17.7402 1.33012C17.4007 1.08676 17.0154 0.914673 16.6076 0.824234C16.1998 0.733796 15.7779 0.726879 15.3673 0.803902L3.03125 2.91H3.01719C2.24285 3.05807 1.55425 3.49618 1.09203 4.13484C1.7884 3.63952 2.622 3.37389 3.47656 3.375ZM18.4766 4.5H3.47656C2.68118 4.50086 1.91862 4.81721 1.3562 5.37963C0.79378 5.94206 0.477431 6.70461 0.476562 7.5V16.5C0.477431 17.2954 0.79378 18.0579 1.3562 18.6204C1.91862 19.1828 2.68118 19.4991 3.47656 19.5H18.4766C19.2719 19.4991 20.0345 19.1828 20.5969 18.6204C21.1593 18.0579 21.4757 17.2954 21.4766 16.5V7.5C21.4757 6.70461 21.1593 5.94206 20.5969 5.37963C20.0345 4.81721 19.2719 4.50086 18.4766 4.5ZM16.25 13.5C15.9533 13.5 15.6633 13.412 15.4166 13.2472C15.17 13.0824 14.9777 12.8481 14.8642 12.574C14.7506 12.2999 14.7209 11.9983 14.7788 11.7074C14.8367 11.4164 14.9796 11.1491 15.1893 10.9393C15.3991 10.7296 15.6664 10.5867 15.9574 10.5288C16.2483 10.4709 16.5499 10.5006 16.824 10.6142C17.0981 10.7277 17.3324 10.92 17.4972 11.1666C17.662 11.4133 17.75 11.7033 17.75 12C17.75 12.3978 17.592 12.7794 17.3107 13.0607C17.0294 13.342 16.6478 13.5 16.25 13.5Z" fill="#7CFBB2"/>
</svg>
