<svg width="192" height="174" viewBox="0 0 192 174" fill="none" xmlns="http://www.w3.org/2000/svg">
<path fill-rule="evenodd" clip-rule="evenodd" d="M179.613 99.3652C179.628 86.6465 176.741 74.0995 171.181 62.7229C165.621 51.3462 157.542 41.4539 147.586 33.8331C137.63 26.2123 126.073 21.0735 113.833 18.8255C101.594 16.5775 89.0101 17.2824 77.0839 20.8841C65.1576 24.4858 54.2179 30.8849 45.1353 39.5722C36.0527 48.2595 29.0779 58.9951 24.7659 70.9248C20.454 82.8544 18.924 95.6488 20.2976 108.29C21.6712 120.931 25.9105 133.069 32.6782 143.739H46.9004C39.9448 135.077 35.1274 124.83 32.8544 113.865C30.5814 102.899 30.9195 91.5346 33.84 80.7303C36.7605 69.9261 42.1779 59.9983 49.6356 51.7841C57.0932 43.5698 66.3724 37.3098 76.6909 33.5318C87.0094 29.7538 98.0648 28.5685 108.925 30.0759C119.785 31.5833 130.132 35.7392 139.093 42.1933C148.054 48.6473 155.366 57.2102 160.414 67.1603C165.461 77.1103 168.096 88.1556 168.095 99.3652C168.14 103.343 167.875 107.318 167.303 111.253C164.355 131.614 149.129 132.932 147.618 133.019H142.673V100.867C142.673 82.8519 131.79 73.8496 118.191 73.8496C109.738 73.8496 103.293 78.756 99.6683 86.8181C96.1709 78.7344 89.6938 73.8496 81.1457 73.8496C67.9379 73.8496 56.8433 82.8627 56.8433 100.867V143.793H68.6986V102.143C68.6986 90.3521 73.4851 84.5162 81.1245 84.5162C88.764 84.5162 93.8041 91.2815 93.8041 104.391V143.739H105.607V104.391C105.607 91.2815 110.53 84.5162 118.17 84.5162C125.809 84.5162 130.765 90.3521 130.765 102.143V143.739H147.787C154.761 143.502 167.187 139.2 173.833 125.735C177.468 118.602 179.613 108.897 179.613 99.3652Z" fill="#FDFEFF" stroke="#FDFEFF" stroke-width="1.13589"/>
</svg>
