<svg width="169" height="45" viewBox="0 0 169 45" fill="none" xmlns="http://www.w3.org/2000/svg">
<path d="M73.9638 19.191C74.9341 19.191 75.7599 19.3701 76.4411 19.7284C77.143 20.0655 77.7108 20.5186 78.1443 21.0875C78.5985 21.6565 78.9288 22.3097 79.1353 23.0472C79.3417 23.7848 79.4449 24.5434 79.4449 25.323V34.8056H75.7289V26.3977C75.7289 25.9552 75.6979 25.4916 75.636 25.007C75.5741 24.5223 75.4399 24.0903 75.2334 23.711C75.027 23.3106 74.7379 22.984 74.3663 22.7311C74.0154 22.4783 73.5406 22.3518 72.9419 22.3518C72.3638 22.3518 71.8683 22.4783 71.4555 22.7311C71.0426 22.984 70.7019 23.3106 70.4335 23.711C70.1652 24.1114 69.969 24.5644 69.8452 25.0702C69.7213 25.5548 69.6594 26.0395 69.6594 26.5242V34.8056H65.9433V25.6391C65.9433 24.6909 65.7163 23.9112 65.2621 23.3001C64.8285 22.6679 64.1369 22.3518 63.1873 22.3518C62.6299 22.3518 62.1447 22.4783 61.7318 22.7311C61.3189 22.9629 60.9783 23.2685 60.7099 23.6478C60.4622 24.0271 60.2661 24.4696 60.1216 24.9753C59.9977 25.46 59.9358 25.9552 59.9358 26.4609V34.8056H56.2197V19.6335H59.75V22.0674H59.8119C59.977 21.6881 60.1938 21.3298 60.4622 20.9927C60.7512 20.6555 61.0815 20.35 61.4531 20.076C61.8454 19.8021 62.2892 19.5914 62.7847 19.4439C63.2802 19.2753 63.8273 19.191 64.426 19.191C65.5821 19.191 66.542 19.4544 67.3059 19.9812C68.0697 20.508 68.6581 21.2034 69.071 22.0674C69.5665 21.1402 70.2271 20.4343 71.0529 19.9496C71.8787 19.4439 72.849 19.191 73.9638 19.191Z" fill="#FDFEFF"/>
<path d="M81.0443 27.1563C81.0443 25.9552 81.2508 24.87 81.6637 23.9007C82.0972 22.9103 82.6752 22.0674 83.3978 21.372C84.1204 20.6766 84.9771 20.1393 85.9681 19.76C86.959 19.3807 88.0119 19.191 89.1267 19.191C90.2415 19.191 91.2944 19.3807 92.2853 19.76C93.2762 20.1393 94.133 20.6766 94.8556 21.372C95.5781 22.0674 96.1459 22.9103 96.5587 23.9007C96.9923 24.87 97.209 25.9552 97.209 27.1563C97.209 28.3574 96.9923 29.4532 96.5587 30.4436C96.1459 31.434 95.5781 32.2874 94.8556 33.0039C94.133 33.6993 93.2762 34.2471 92.2853 34.6475C91.2944 35.0479 90.2415 35.2481 89.1267 35.2481C88.0119 35.2481 86.959 35.0479 85.9681 34.6475C84.9771 34.2471 84.1204 33.6993 83.3978 33.0039C82.6752 32.2874 82.0972 31.434 81.6637 30.4436C81.2508 29.4532 81.0443 28.3574 81.0443 27.1563ZM84.8223 27.1563C84.8223 27.7463 84.9049 28.3364 85.07 28.9264C85.2558 29.5164 85.5242 30.0432 85.8752 30.5068C86.2261 30.9704 86.67 31.3497 87.2067 31.6447C87.7435 31.9397 88.3835 32.0872 89.1267 32.0872C89.8699 32.0872 90.5099 31.9397 91.0466 31.6447C91.5834 31.3497 92.0273 30.9704 92.3782 30.5068C92.7292 30.0432 92.9872 29.5164 93.1524 28.9264C93.3382 28.3364 93.4311 27.7463 93.4311 27.1563C93.4311 26.5663 93.3382 25.9868 93.1524 25.4179C92.9872 24.8278 92.7292 24.301 92.3782 23.8374C92.0273 23.3739 91.5834 23.0051 91.0466 22.7311C90.5099 22.4361 89.8699 22.2886 89.1267 22.2886C88.3835 22.2886 87.7435 22.4361 87.2067 22.7311C86.67 23.0051 86.2261 23.3739 85.8752 23.8374C85.5242 24.301 85.2558 24.8278 85.07 25.4179C84.9049 25.9868 84.8223 26.5663 84.8223 27.1563Z" fill="#FDFEFF"/>
<path d="M102.732 10.9096V21.5616H102.825C103.011 21.3088 103.248 21.0454 103.537 20.7714C103.826 20.4975 104.167 20.2446 104.559 20.0128C104.972 19.781 105.447 19.5914 105.984 19.4439C106.52 19.2753 107.129 19.191 107.811 19.191C108.863 19.191 109.834 19.4017 110.722 19.8232C111.609 20.2235 112.373 20.782 113.013 21.4984C113.653 22.2149 114.149 23.0578 114.499 24.0271C114.85 24.9964 115.026 26.0395 115.026 27.1563C115.026 28.2732 114.85 29.3268 114.499 30.3172C114.169 31.2865 113.684 32.1399 113.044 32.8774C112.425 33.5939 111.661 34.1734 110.752 34.6159C109.865 35.0374 108.853 35.2481 107.718 35.2481C106.665 35.2481 105.674 35.0163 104.745 34.5527C103.837 34.0891 103.124 33.4148 102.608 32.5298H102.546V34.8056H99.016V10.9096H102.732ZM111.248 27.1563C111.248 26.5663 111.155 25.9868 110.969 25.4179C110.804 24.8278 110.546 24.301 110.195 23.8374C109.844 23.3739 109.4 23.0051 108.863 22.7311C108.327 22.4361 107.697 22.2886 106.975 22.2886C106.293 22.2886 105.684 22.4361 105.147 22.7311C104.611 23.0262 104.146 23.4055 103.754 23.8691C103.382 24.3326 103.093 24.8594 102.887 25.4495C102.701 26.0395 102.608 26.6295 102.608 27.2195C102.608 27.8096 102.701 28.3996 102.887 28.9896C103.093 29.5586 103.382 30.0748 103.754 30.5384C104.146 31.002 104.611 31.3813 105.147 31.6763C105.684 31.9503 106.293 32.0872 106.975 32.0872C107.697 32.0872 108.327 31.9397 108.863 31.6447C109.4 31.3497 109.844 30.9704 110.195 30.5068C110.546 30.0432 110.804 29.5164 110.969 28.9264C111.155 28.3364 111.248 27.7463 111.248 27.1563Z" fill="#FDFEFF"/>
<path d="M116.815 19.6335H120.531V34.8056H116.815V19.6335ZM116.288 14.4814C116.288 13.8703 116.505 13.3435 116.939 12.9009C117.393 12.4373 117.961 12.2056 118.642 12.2056C119.323 12.2056 119.891 12.4268 120.345 12.8693C120.82 13.2908 121.057 13.8281 121.057 14.4814C121.057 15.1346 120.82 15.6825 120.345 16.125C119.891 16.5464 119.323 16.7572 118.642 16.7572C117.961 16.7572 117.393 16.5359 116.939 16.0934C116.505 15.6298 116.288 15.0925 116.288 14.4814Z" fill="#FDFEFF"/>
<path d="M123.243 10.9096H126.959V34.8056H123.243V10.9096Z" fill="#FDFEFF"/>
<path d="M143.172 34.8056H139.642V32.3717H139.58C139.25 33.1303 138.672 33.8046 137.846 34.3946C137.041 34.9636 136.081 35.2481 134.966 35.2481C133.996 35.2481 133.16 35.0795 132.458 34.7423C131.777 34.3841 131.209 33.9205 130.755 33.3516C130.321 32.7826 130.001 32.1294 129.795 31.3919C129.588 30.6543 129.485 29.8957 129.485 29.116V19.6335H133.201V28.0414C133.201 28.4839 133.232 28.9475 133.294 29.4321C133.356 29.9168 133.49 30.3593 133.697 30.7597C133.903 31.139 134.182 31.4551 134.533 31.7079C134.904 31.9608 135.389 32.0872 135.988 32.0872C136.566 32.0872 137.072 31.9713 137.505 31.7395C137.96 31.4867 138.321 31.1706 138.589 30.7913C138.878 30.412 139.095 29.98 139.24 29.4953C139.384 28.9896 139.456 28.4839 139.456 27.9781V19.6335H143.172V34.8056Z" fill="#FDFEFF"/>
<path d="M163.519 19.191C164.489 19.191 165.315 19.3701 165.996 19.7284C166.698 20.0655 167.266 20.5186 167.699 21.0875C168.153 21.6565 168.484 22.3097 168.69 23.0472C168.897 23.7848 169 24.5434 169 25.323V34.8056H165.284V26.3977C165.284 25.9552 165.253 25.4916 165.191 25.007C165.129 24.5223 164.995 24.0903 164.788 23.711C164.582 23.3106 164.293 22.984 163.921 22.7311C163.57 22.4783 163.095 22.3518 162.497 22.3518C161.919 22.3518 161.423 22.4783 161.01 22.7311C160.597 22.984 160.257 23.3106 159.988 23.711C159.72 24.1114 159.524 24.5644 159.4 25.0702C159.276 25.5548 159.214 26.0395 159.214 26.5242V34.8056H155.498V25.6391C155.498 24.6909 155.271 23.9112 154.817 23.3001C154.383 22.6679 153.692 22.3518 152.742 22.3518C152.185 22.3518 151.7 22.4783 151.287 22.7311C150.874 22.9629 150.533 23.2685 150.265 23.6478C150.017 24.0271 149.821 24.4696 149.676 24.9753C149.553 25.46 149.491 25.9552 149.491 26.4609V34.8056H145.775V19.6335H149.305V22.0674H149.367C149.532 21.6881 149.749 21.3298 150.017 20.9927C150.306 20.6555 150.636 20.35 151.008 20.076C151.4 19.8021 151.844 19.5914 152.34 19.4439C152.835 19.2753 153.382 19.191 153.981 19.191C155.137 19.191 156.097 19.4544 156.861 19.9812C157.625 20.508 158.213 21.2034 158.626 22.0674C159.121 21.1402 159.782 20.4343 160.608 19.9496C161.434 19.4439 162.404 19.191 163.519 19.191Z" fill="#FDFEFF"/>
<path fill-rule="evenodd" clip-rule="evenodd" d="M45.781 25.3973C45.785 22.1465 45.0491 18.9395 43.632 16.0317C42.2148 13.1239 40.1555 10.5954 37.6178 8.64761C35.0802 6.69977 32.1343 5.38629 29.0146 4.81171C25.8949 4.23713 22.6875 4.4173 19.6476 5.33788C16.6078 6.25847 13.8194 7.89406 11.5043 10.1145C9.18925 12.3349 7.41146 15.0789 6.3124 18.1281C5.21333 21.1772 4.82335 24.4474 5.17346 27.6784C5.52358 30.9094 6.60414 34.0119 8.32915 36.7392H11.9542C10.1813 34.525 8.95342 31.9061 8.37406 29.1033C7.7947 26.3005 7.88086 23.3959 8.62527 20.6343C9.36968 17.8728 10.7505 15.3353 12.6514 13.2358C14.5522 11.1363 16.9174 9.53623 19.5475 8.57058C22.1775 7.60494 24.9954 7.30199 27.7636 7.68728C30.5317 8.07257 33.1689 9.1348 35.453 10.7844C37.737 12.434 39.6009 14.6227 40.8874 17.1659C42.174 19.7091 42.8455 22.5322 42.8454 25.3973C42.8568 26.4141 42.7893 27.4301 42.6434 28.4358C41.892 33.6399 38.0111 33.9769 37.626 33.999H36.3655V25.7813C36.3655 21.1766 33.5915 18.8756 30.1254 18.8756C27.9708 18.8756 26.3279 20.1297 25.4042 22.1904C24.5127 20.1242 22.8618 18.8756 20.6829 18.8756C17.3164 18.8756 14.4885 21.1794 14.4885 25.7813V36.753H17.5103V26.1072C17.5103 23.0936 18.7304 21.602 20.6776 21.602C22.6248 21.602 23.9094 23.3312 23.9094 26.6818V36.7392H26.9177V26.6818C26.9177 23.3312 28.1728 21.602 30.12 21.602C32.0672 21.602 33.3303 23.0936 33.3303 26.1072V36.7392H37.6691C39.4466 36.6784 42.6138 35.579 44.3078 32.1373C45.2343 30.3142 45.781 27.8337 45.781 25.3973Z" fill="#FDFEFF" stroke="#FDFEFF" stroke-width="1.13589"/>
</svg>
